<svg xmlns="http://www.w3.org/2000/svg" width="26.5" height="26.5" viewBox="0 0 26.5 26.5">
  <g id="Icon_feather-settings" data-name="Icon feather-settings" transform="translate(0.75 0.75)">
    <path id="Path_283" data-name="Path 283" d="M22.089,17.794A4.294,4.294,0,1,1,17.794,13.5,4.294,4.294,0,0,1,22.089,17.794Z" transform="translate(-5.294 -5.294)" fill="none" stroke="#544646" stroke-linecap="round" stroke-linejoin="round" stroke-width="1.5"/>
    <path id="Path_284" data-name="Path 284" d="M22.409,17.409a1.875,1.875,0,0,0,.375,2.068l.068.068a2.274,2.274,0,1,1-3.216,3.216l-.068-.068a1.89,1.89,0,0,0-3.2,1.341v.193a2.273,2.273,0,1,1-4.545,0v-.1a1.875,1.875,0,0,0-1.227-1.716,1.875,1.875,0,0,0-2.068.375l-.068.068a2.274,2.274,0,1,1-3.216-3.216l.068-.068a1.89,1.89,0,0,0-1.341-3.2H3.773a2.273,2.273,0,0,1,0-4.545h.1a1.875,1.875,0,0,0,1.716-1.227,1.875,1.875,0,0,0-.375-2.068l-.068-.068A2.274,2.274,0,1,1,8.364,5.239l.068.068a1.875,1.875,0,0,0,2.068.375h.091a1.875,1.875,0,0,0,1.136-1.716V3.773a2.273,2.273,0,1,1,4.545,0v.1a1.89,1.89,0,0,0,3.2,1.341l.068-.068a2.274,2.274,0,1,1,3.216,3.216l-.068.068a1.875,1.875,0,0,0-.375,2.068v.091a1.875,1.875,0,0,0,1.716,1.136h.193a2.273,2.273,0,1,1,0,4.545h-.1a1.875,1.875,0,0,0-1.716,1.136Z" transform="translate(-1.5 -1.5)" fill="none" stroke="#544646" stroke-linecap="round" stroke-linejoin="round" stroke-width="1.5"/>
  </g>
</svg>
