<svg xmlns="http://www.w3.org/2000/svg" width="20.758" height="19.882" viewBox="0 0 20.758 19.882">
  <g id="Icon_feather-shopping-cart" data-name="Icon feather-shopping-cart" transform="translate(0.75 0.75)">
    <path id="Path_280" data-name="Path 280" d="M13.751,30.875A.875.875,0,1,1,12.875,30,.875.875,0,0,1,13.751,30.875Z" transform="translate(-5.872 -13.369)" fill="none" stroke="#544646" stroke-linecap="round" stroke-linejoin="round" stroke-width="1.5"/>
    <path id="Path_281" data-name="Path 281" d="M30.251,30.875A.875.875,0,1,1,29.375,30,.875.875,0,0,1,30.251,30.875Z" transform="translate(-12.744 -13.369)" fill="none" stroke="#544646" stroke-linecap="round" stroke-linejoin="round" stroke-width="1.5"/>
    <path id="Path_282" data-name="Path 282" d="M1.5,1.5H5L7.347,13.221A1.751,1.751,0,0,0,9.1,14.63h8.508a1.751,1.751,0,0,0,1.751-1.409l1.4-7.344H5.877" transform="translate(-1.5 -1.5)" fill="none" stroke="#544646" stroke-linecap="round" stroke-linejoin="round" stroke-width="1.5"/>
  </g>
</svg>
