<svg xmlns="http://www.w3.org/2000/svg" width="27.555" height="26.371" viewBox="0 0 27.555 26.371">
  <g id="Icon_feather-shopping-cart" data-name="Icon feather-shopping-cart" transform="translate(-0.75 -0.75)">
    <path id="Path_280" data-name="Path 280" d="M14.369,31.184A1.184,1.184,0,1,1,13.184,30,1.184,1.184,0,0,1,14.369,31.184Z" transform="translate(-2.21 -5.998)" fill="none" stroke="#efefef" stroke-linecap="round" stroke-linejoin="round" stroke-width="1.5"/>
    <path id="Path_281" data-name="Path 281" d="M30.869,31.184A1.184,1.184,0,1,1,29.684,30,1.184,1.184,0,0,1,30.869,31.184Z" transform="translate(-5.682 -5.998)" fill="none" stroke="#efefef" stroke-linecap="round" stroke-linejoin="round" stroke-width="1.5"/>
    <path id="Path_282" data-name="Path 282" d="M1.5,1.5H6.237L9.411,17.358a2.369,2.369,0,0,0,2.369,1.907H23.292a2.369,2.369,0,0,0,2.369-1.907l1.895-9.937H7.422" transform="translate(0 0)" fill="none" stroke="#efefef" stroke-linecap="round" stroke-linejoin="round" stroke-width="1.5"/>
  </g>
</svg>
