<svg id="Capa_1" enable-background="new 0 0 512 512" height="512" viewBox="0 0 512 512" width="512" xmlns="http://www.w3.org/2000/svg"><g><circle cx="256" cy="256" fill="#ecf4ff" r="256"/><path d="m256 0c-5.19 0-10.339.173-15.453.477 134.188 7.992 240.548 119.328 240.548 255.523s-106.36 247.531-240.547 255.523c5.113.304 10.262.477 15.452.477 141.385 0 256-114.615 256-256s-114.615-256-256-256z" fill="#ddeafb"/><g><g><path d="m470.014 258.099c0 21.723-23.83 39.393-30.243 58.987-6.64 20.289 1.903 48.583-10.477 65.461-12.484 17.02-42.124 17.373-59.265 29.75-16.945 12.236-26.562 40.318-46.908 46.872-19.612 6.318-43.74-10.647-65.467-10.647-21.728 0-45.855 16.965-65.467 10.647-20.345-6.554-29.963-34.636-46.908-46.872-17.141-12.377-46.781-12.73-59.265-29.75-12.38-16.878-3.837-45.171-10.477-65.46-6.413-19.595-30.243-37.265-30.243-58.987 0-21.723 23.83-39.393 30.243-58.987 6.64-20.289-1.903-48.583 10.477-65.461 12.484-17.02 42.124-17.373 59.265-29.75 16.945-12.236 26.562-40.318 46.908-46.872 19.612-6.318 43.74 10.647 65.467 10.647 21.728 0 45.855-16.965 65.467-10.647 20.345 6.554 29.963 34.636 46.908 46.872 17.141 12.377 46.781 12.73 59.265 29.75 12.38 16.878 3.837 45.171 10.477 65.461 6.413 19.593 30.243 37.263 30.243 58.986z" fill="#b3e59f"/></g><g><path d="m439.771 199.111c-6.64-20.289 1.903-48.583-10.477-65.461-12.484-17.02-42.124-17.372-59.265-29.75-16.945-12.235-26.563-40.318-46.908-46.872-8.389-2.703-17.606-1.141-27.106 1.527 17.813 8.581 27.254 33.897 43.108 45.345 17.141 12.378 46.781 12.73 59.265 29.75 12.38 16.878 3.837 45.172 10.477 65.461 6.413 19.595 30.243 37.265 30.243 58.987s-23.83 39.393-30.243 58.987c-6.64 20.289 1.903 48.583-10.477 65.461-12.484 17.02-42.124 17.373-59.265 29.75-15.854 11.448-25.295 36.764-43.108 45.345 9.5 2.668 18.717 4.229 27.106 1.527 20.345-6.554 29.963-34.636 46.908-46.872 17.141-12.377 46.781-12.73 59.265-29.75 12.38-16.878 3.837-45.172 10.477-65.461 6.413-19.595 30.243-37.265 30.243-58.987s-23.83-39.392-30.243-58.987z" fill="#95d6a4"/></g><g><g><g><circle cx="181.421" cy="252.03" fill="#d9f0a0" r="70.567"/><path d="m181.421 181.462c-5.311 0-10.477.606-15.453 1.718 31.537 7.049 55.115 35.187 55.115 68.85s-23.578 61.801-55.115 68.85c4.975 1.112 10.142 1.718 15.453 1.718 38.973 0 70.567-31.594 70.567-70.567s-31.594-70.569-70.567-70.569z" fill="#b3e59f"/><path d="m181.421 330.324c-43.171 0-78.294-35.123-78.294-78.294s35.123-78.294 78.294-78.294 78.294 35.123 78.294 78.294-35.123 78.294-78.294 78.294zm0-141.135c-34.651 0-62.841 28.19-62.841 62.841s28.19 62.841 62.841 62.841 62.841-28.19 62.841-62.841-28.19-62.841-62.841-62.841z" fill="#e8f6c6"/></g><g fill="#e8f6c6"><circle cx="181.421" cy="213.398" r="7.726"/><circle cx="181.421" cy="290.662" r="7.726"/><circle cx="181.421" cy="252.03" r="7.726"/><g><circle cx="142.789" cy="252.03" r="7.726"/><circle cx="220.053" cy="252.03" r="7.726"/></g></g></g><g><g><circle cx="341.099" cy="311.668" fill="#d9f0a0" r="70.567"/><path d="m341.099 241.101c-5.311 0-10.477.606-15.453 1.718 31.537 7.049 55.115 35.187 55.115 68.85s-23.578 61.801-55.115 68.85c4.975 1.112 10.142 1.718 15.453 1.718 38.973 0 70.567-31.594 70.567-70.567s-31.594-70.569-70.567-70.569z" fill="#b3e59f"/><path d="m341.099 389.962c-43.171 0-78.294-35.123-78.294-78.294s35.123-78.294 78.294-78.294 78.294 35.123 78.294 78.294-35.123 78.294-78.294 78.294zm0-141.135c-34.651 0-62.841 28.19-62.841 62.841s28.19 62.841 62.841 62.841 62.841-28.19 62.841-62.841-28.19-62.841-62.841-62.841z" fill="#e8f6c6"/></g><g fill="#e8f6c6"><circle cx="341.099" cy="273.036" r="7.726"/><circle cx="341.099" cy="350.3" r="7.726"/><circle cx="341.099" cy="311.668" r="7.726"/><g><circle cx="302.467" cy="311.668" r="7.726"/><circle cx="379.731" cy="311.668" r="7.726"/></g></g></g><g><g><circle cx="289.59" cy="185.874" fill="#d9f0a0" r="70.567"/><path d="m289.59 115.306c-5.311 0-10.477.606-15.453 1.718 31.537 7.049 55.115 35.187 55.115 68.85s-23.578 61.801-55.115 68.85c4.975 1.112 10.142 1.718 15.453 1.718 38.973 0 70.567-31.594 70.567-70.567s-31.594-70.569-70.567-70.569z" fill="#b3e59f"/><path d="m289.59 264.167c-43.171 0-78.294-35.123-78.294-78.294s35.123-78.294 78.294-78.294 78.294 35.123 78.294 78.294-35.123 78.294-78.294 78.294zm0-141.135c-34.651 0-62.841 28.19-62.841 62.841s28.19 62.841 62.841 62.841 62.841-28.19 62.841-62.841-28.19-62.841-62.841-62.841z" fill="#e8f6c6"/></g><g fill="#e8f6c6"><circle cx="289.59" cy="147.242" r="7.726"/><circle cx="289.59" cy="224.505" r="7.726"/><circle cx="289.59" cy="185.874" r="7.726"/><g><circle cx="250.958" cy="185.874" r="7.726"/><circle cx="328.222" cy="185.874" r="7.726"/></g></g></g></g><circle cx="257.654" cy="62.841" fill="#e17f85" r="26.785"/><path d="m267.22 37.822c1.137 2.971 1.766 6.195 1.766 9.566 0 14.793-11.992 26.785-26.785 26.785-3.371 0-6.594-.629-9.566-1.766 3.852 10.067 13.598 17.219 25.019 17.219 14.793 0 26.785-11.992 26.785-26.785 0-11.421-7.152-21.167-17.219-25.019z" fill="#de646e"/><circle cx="56.769" cy="258.099" fill="#e17f85" r="26.785"/><path d="m66.335 233.08c1.137 2.971 1.766 6.195 1.766 9.566 0 14.793-11.992 26.785-26.785 26.785-3.371 0-6.594-.629-9.566-1.766 3.852 10.067 13.598 17.219 25.019 17.219 14.793 0 26.785-11.992 26.785-26.785 0-11.422-7.152-21.167-17.219-25.019z" fill="#de646e"/><circle cx="455.231" cy="258.099" fill="#e17f85" r="26.785"/><path d="m464.797 233.08c1.137 2.971 1.766 6.195 1.766 9.566 0 14.793-11.992 26.785-26.785 26.785-3.371 0-6.595-.629-9.566-1.766 3.852 10.067 13.597 17.219 25.019 17.219 14.793 0 26.785-11.992 26.785-26.785 0-11.422-7.152-21.167-17.219-25.019z" fill="#de646e"/><circle cx="257.654" cy="449.159" fill="#e17f85" r="26.785"/><path d="m267.22 424.14c1.137 2.971 1.766 6.195 1.766 9.566 0 14.793-11.992 26.785-26.785 26.785-3.371 0-6.594-.629-9.566-1.766 3.852 10.067 13.598 17.219 25.019 17.219 14.793 0 26.785-11.992 26.785-26.785 0-11.422-7.152-21.167-17.219-25.019z" fill="#de646e"/></g></g></svg>