<svg id="Capa_1" enable-background="new 0 0 512 512" height="512" viewBox="0 0 512 512" width="512" xmlns="http://www.w3.org/2000/svg"><g><g><circle cx="256" cy="256" fill="#cbe2ff" r="256"/></g><path d="m256 0c-5.19 0-10.339.173-15.453.478 134.188 7.992 240.548 119.327 240.548 255.522s-106.36 247.53-240.547 255.522c5.113.305 10.262.478 15.452.478 141.385 0 256-114.615 256-256s-114.615-256-256-256z" fill="#bed8fb"/><g><g><path d="m431.422 254.291c0 19.012-27.925 32.962-33.087 50.112-5.345 17.758 9.406 46.92-.559 61.692-10.049 14.896-40.146 8.371-53.944 19.204-13.64 10.709-17.383 43.877-33.759 49.614-15.787 5.53-36.583-18.831-54.073-18.831s-38.286 24.361-54.072 18.831c-16.377-5.736-20.12-38.905-33.76-49.614-13.798-10.833-43.895-4.308-53.944-19.204-9.965-14.772 4.786-43.934-.559-61.691-5.162-17.15-33.087-31.099-33.087-50.112 0-19.012 27.925-32.962 33.087-50.112 5.345-17.758-9.406-46.92.559-61.692 10.049-14.896 40.146-8.371 53.944-19.204 13.64-10.709 17.383-43.877 33.759-49.614 15.787-5.53 36.583 18.831 54.073 18.831s38.286-24.361 54.072-18.831c16.377 5.736 20.12 38.905 33.76 49.614 13.798 10.833 43.895 4.308 53.944 19.204 9.965 14.772-4.786 43.934.559 61.691 5.162 17.15 33.087 31.1 33.087 50.112z" fill="#b3e59f"/></g><g fill="#95d6a4"><path d="m113.665 173.275c2.379-7.904.776-18.068-.856-28.217-3.662 8.072-1.862 19.329-.043 30.637.342-.802.654-1.606.899-2.42z"/><path d="m398.335 273.497c-2.4 7.975-.748 18.249.899 28.486 6.867-16.063 32.188-29.582 32.188-47.691 0-5.51-2.353-10.593-5.809-15.453-8.472 11.912-23.612 22.479-27.278 34.658z"/><path d="m397.776 335.189c-10.049 14.896-40.146 8.371-53.944 19.204-13.64 10.709-17.383 43.877-33.759 49.614-15.787 5.53-36.583-18.831-54.073-18.831s-38.286 24.361-54.072 18.831c-16.377-5.736-20.12-38.904-33.76-49.614-13.798-10.833-43.895-4.308-53.944-19.204-.548-.812-1.009-1.674-1.414-2.568-2.035 12.65-4.115 25.278 1.414 33.474 10.049 14.896 40.146 8.371 53.944 19.204 13.64 10.709 17.383 43.877 33.76 49.614 15.787 5.53 36.583-18.831 54.072-18.831 17.49 0 38.286 24.361 54.073 18.831 16.377-5.736 20.12-38.904 33.759-49.614 13.798-10.833 43.895-4.308 53.944-19.204 5.529-8.196 3.449-20.824 1.415-33.475-.406.895-.867 1.757-1.415 2.569z"/></g><g fill="#95d6a4"><path d="m137.262 138.736c2.538-1.992 4.733-4.765 6.73-7.991-11.952 1.739-24.077 3.305-29.769 11.742-.799 1.184-1.424 2.47-1.928 3.826 9.415-1.365 18.813-2.745 24.967-7.577z"/><path d="m398.335 304.402c5.162-17.149 33.087-31.099 33.087-50.111 0-19.013-27.925-32.963-33.087-50.113-5.345-17.758 9.406-46.92-.559-61.691-10.049-14.896-40.146-8.371-53.944-19.204-13.64-10.708-17.383-43.877-33.76-49.614-11.948-4.185-26.764 8.744-40.845 15.284 3.467-.836 6.803-.93 9.94.169 16.377 5.736 20.12 38.905 33.76 49.614 13.798 10.833 43.895 4.308 53.944 19.204 9.965 14.772-4.786 43.934.559 61.691 5.162 17.15 33.087 31.1 33.087 50.113 0 19.012-27.925 32.962-33.087 50.111-4.916 16.335 7.155 42.309 1.369 57.866 11.692-1.697 23.411-3.375 28.977-11.627 9.966-14.771-4.786-43.933.559-61.692z"/></g><g><circle cx="385.803" cy="353.189" fill="#e17f85" r="56.145"/><path d="m385.803 297.044c-5.362 0-10.542.767-15.453 2.171 23.49 6.713 40.692 28.327 40.692 53.974 0 25.646-17.202 47.26-40.692 53.973 4.911 1.404 10.091 2.172 15.453 2.172 31.008 0 56.145-25.137 56.145-56.145s-25.137-56.145-56.145-56.145z" fill="#de646e"/><g fill="#efc2c6"><circle cx="359.042" cy="360.915" r="7.726"/><circle cx="414.793" cy="360.915" r="7.726"/><circle cx="386.751" cy="380.888" r="7.726"/></g></g><g><circle cx="127.251" cy="162.59" fill="#e17f85" r="56.145"/><path d="m171.628 128.196c-14.482-18.685-38.418-25.706-59.838-19.578 11.096 3.165 21.321 9.759 28.932 19.578 18.995 24.508 14.526 59.776-9.982 78.771-5.824 4.514-12.257 7.686-18.933 9.597 16.599 4.735 35.15 1.789 49.839-9.597 24.508-18.995 28.977-54.263 9.982-78.771z" fill="#de646e"/><g fill="#efc2c6"><circle cx="101.366" cy="172.877" r="7.726"/><circle cx="145.431" cy="138.724" r="7.726"/><circle cx="111.032" cy="140.117" r="7.726"/></g></g><g><g><path d="m363.38 92.466c0-2.991 2.54-5.342 5.525-5.144 42.9 2.842 76.818 38.54 76.818 82.16s-33.917 79.318-76.818 82.16c-2.985.198-5.525-2.153-5.525-5.144z" fill="#fdf9ce"/><path d="m368.567 259.379c-3.263 0-6.444-1.245-8.837-3.484-2.591-2.425-4.077-5.85-4.077-9.397v-154.032c0-3.547 1.486-6.973 4.077-9.397 2.6-2.433 6.133-3.699 9.686-3.456 47.12 3.122 84.032 42.597 84.032 89.869s-36.912 86.747-84.034 89.869c-.282.019-.564.028-.847.028zm2.539-164.118v148.443c37.723-3.884 66.89-35.972 66.89-74.221s-29.168-70.338-66.89-74.222z" fill="#ffe07d"/></g><g><path d="m445.722 177.208h-82.342c-4.267 0-7.726-3.459-7.726-7.726s3.459-7.726 7.726-7.726h82.343c4.267 0 7.726 3.459 7.726 7.726s-3.46 7.726-7.727 7.726z" fill="#ffe07d"/></g><g><path d="m363.377 177.208c-1.824 0-3.656-.642-5.127-1.95-3.191-2.833-3.48-7.716-.647-10.907l54.672-61.563c2.833-3.189 7.717-3.481 10.907-.646 3.191 2.833 3.48 7.716.647 10.907l-54.672 61.563c-1.527 1.719-3.649 2.596-5.78 2.596z" fill="#ffe07d"/></g></g><g><g><path d="m229.384 308.804c0-2.991-2.54-5.342-5.525-5.144-42.9 2.842-76.818 38.54-76.818 82.16s33.917 79.318 76.818 82.16c2.985.198 5.525-2.153 5.525-5.144z" fill="#fdf9ce"/><path d="m224.196 475.717c-.283 0-.565-.009-.849-.028-47.12-3.122-84.032-42.597-84.032-89.869s36.911-86.747 84.033-89.869c3.552-.241 7.086 1.024 9.685 3.457 2.591 2.425 4.077 5.849 4.077 9.396v154.032c0 3.547-1.486 6.972-4.077 9.396-2.392 2.24-5.573 3.485-8.837 3.485zm-2.538-164.118c-37.723 3.884-66.89 35.972-66.89 74.221 0 38.252 29.164 70.34 66.89 74.221z" fill="#ffe07d"/></g><g><path d="m229.384 393.546h-82.343c-4.267 0-7.726-3.459-7.726-7.726s3.459-7.726 7.726-7.726h82.343c4.267 0 7.726 3.459 7.726 7.726s-3.459 7.726-7.726 7.726z" fill="#ffe07d"/></g><g><path d="m174.709 455.11c-1.824 0-3.656-.642-5.127-1.95-3.191-2.833-3.48-7.716-.647-10.907l54.672-61.563c2.833-3.189 7.717-3.482 10.907-.646 3.191 2.833 3.48 7.716.647 10.907l-54.672 61.563c-1.526 1.718-3.648 2.596-5.78 2.596z" fill="#ffe07d"/></g><g><path d="m229.387 393.546c-2.132 0-4.254-.877-5.78-2.596l-54.672-61.563c-2.833-3.191-2.544-8.074.647-10.907 3.191-2.834 8.074-2.542 10.907.646l54.672 61.563c2.833 3.191 2.544 8.074-.647 10.907-1.471 1.307-3.303 1.95-5.127 1.95z" fill="#ffe07d"/></g></g><g><path d="m86.004 338.743c-17.097 0-29.964-15.362-27.226-32.239 15.414-95.022 97.846-167.57 197.222-167.57 99.376 0 181.808 72.548 197.222 167.57 2.738 16.877-10.129 32.239-27.226 32.239z" fill="#f2d59c"/><path d="m453.222 306.504c-15.414-95.022-97.846-167.57-197.222-167.57-5.201 0-10.352.21-15.453.601 92.365 7.066 167.162 76.921 181.769 166.97 2.738 16.876-10.128 32.239-27.226 32.239h30.905c17.099-.001 29.965-15.363 27.227-32.24z" fill="#ecc372"/><circle cx="197.795" cy="220.81" fill="#e17f85" r="18.543"/><circle cx="336.869" cy="220.81" fill="#e17f85" r="18.543"/><circle cx="275.058" cy="282.621" fill="#e17f85" r="18.543"/><g><path d="m391.614 308.556c-4.267 0-7.726-3.459-7.726-7.726 0-11.79-9.592-21.381-21.382-21.381-4.267 0-7.726-3.459-7.726-7.726 0-4.268 3.459-7.726 7.726-7.726 20.311 0 36.835 16.524 36.835 36.834 0 4.267-3.46 7.725-7.727 7.725z" fill="#d7aa8b"/></g><g><path d="m130.715 308.556c-4.267 0-7.726-3.459-7.726-7.726 0-20.31 16.524-36.834 36.835-36.834 4.267 0 7.726 3.459 7.726 7.726 0 4.268-3.459 7.726-7.726 7.726-11.79 0-21.382 9.592-21.382 21.381 0 4.269-3.46 7.727-7.727 7.727z" fill="#d7aa8b"/></g><g><path d="m289.473 201.286c-1.977 0-3.955-.755-5.463-2.263-8.337-8.338-21.901-8.338-30.238 0-3.018 3.016-7.91 3.017-10.927-.001-3.018-3.017-3.017-7.909 0-10.927 14.362-14.361 37.73-14.361 52.092 0 3.018 3.018 3.018 7.909 0 10.928-1.509 1.508-3.486 2.263-5.464 2.263z" fill="#d7aa8b"/></g><g fill="#95d6a4"><circle cx="335.863" cy="300.83" r="7.726"/><circle cx="182.169" cy="304.617" r="7.726"/><circle cx="258.599" cy="228.819" r="7.726"/><circle cx="397.673" cy="254.472" r="7.726"/><circle cx="99.649" cy="293.104" r="7.726"/><circle cx="134.977" cy="223.566" r="7.726"/><circle cx="212.241" cy="271.722" r="7.726"/><circle cx="212.241" cy="177.208" r="7.726"/></g></g></g></g></svg>