<svg id="Capa_1" enable-background="new 0 0 512 512" height="512" viewBox="0 0 512 512" width="512" xmlns="http://www.w3.org/2000/svg"><g><g><circle cx="256" cy="256" fill="#ecf4ff" r="256"/><path d="m256 0c-5.19 0-10.339.173-15.453.477 134.188 7.992 240.548 119.328 240.548 255.523s-106.36 247.531-240.547 255.523c5.113.304 10.262.477 15.452.477 141.385 0 256-114.615 256-256s-114.615-256-256-256z" fill="#ddeafb"/><circle cx="256" cy="256" fill="#cbe2ff" r="186.794"/><path d="m256 69.206c-5.204 0-10.356.223-15.453.64 95.933 7.858 171.341 88.195 171.341 186.154s-75.408 178.296-171.341 186.153c5.097.418 10.248.641 15.453.641 103.163 0 186.794-83.63 186.794-186.794s-83.631-186.794-186.794-186.794z" fill="#bed8fb"/></g><circle cx="305.314" cy="87.185" fill="#b3e59f" r="44.298"/><g fill="#95d6a4"><circle cx="294.139" cy="74.199" r="7.726"/><circle cx="321.814" cy="81.925" r="7.726"/><circle cx="303.596" cy="103.328" r="7.726"/></g><path d="m390.173 433.037c-10.81 0-19.573-8.763-19.573-19.573v-35.026c0-10.81 8.763-19.573 19.573-19.573 10.81 0 19.573 8.763 19.573 19.573v35.026c0 10.81-8.763 19.573-19.573 19.573z" fill="#c6855b"/><path d="m390.173 358.864c-.023 0-.045.004-.067.004.03.442.067.881.067 1.33v35.026c0 10.787-8.727 19.533-19.506 19.57.687 10.187 9.145 18.243 19.506 18.243 10.81 0 19.573-8.763 19.573-19.573v-35.026c0-10.811-8.763-19.574-19.573-19.574z" fill="#c17e4e"/><path d="m184.606 356.611c7.644 7.644 7.644 20.037 0 27.681l-24.767 24.767c-7.644 7.644-20.037 7.644-27.681 0-7.644-7.644-7.644-20.037 0-27.681l24.767-24.767c7.644-7.644 20.037-7.644 27.681 0z" fill="#c6855b"/><path d="m184.606 356.611c-2.861-2.862-6.389-4.651-10.083-5.37 1.202 6.175-.587 12.816-5.37 17.599l-24.767 24.767c-4.782 4.782-11.424 6.572-17.598 5.37.719 3.694 2.508 7.221 5.37 10.083 7.644 7.644 20.037 7.644 27.681 0l24.767-24.767c7.644-7.645 7.644-20.038 0-27.682z" fill="#c17e4e"/><path d="m157.902 177.313-17.653 17.653c-2.012 2.012-5.273 2.012-7.284 0l-64.42-64.42c-2.012-2.012-2.012-5.273 0-7.284l23.495-23.498c2.141-2.141 5.659-1.982 7.599.344l58.577 70.264c1.706 2.047 1.57 5.056-.314 6.941z" fill="#e17f85"/><path d="m158.216 170.372-58.577-70.264c-1.939-2.326-5.457-2.485-7.599-.344l-8.733 8.733 51.583 61.875c1.706 2.046 1.57 5.056-.314 6.94l-9.632 9.632 8.021 8.021c2.012 2.012 5.273 2.012 7.284 0l17.653-17.653c1.884-1.883 2.02-4.893.314-6.94z" fill="#de646e"/><path d="m82.693 312.256-18.302 3.204c-2.085.365-4.072-1.03-4.437-3.115l-11.691-66.788c-.365-2.085 1.03-4.072 3.115-4.437l24.36-4.264c2.22-.389 4.295 1.213 4.481 3.459l5.633 67.848c.164 1.976-1.206 3.752-3.159 4.093z" fill="#e17f85"/><path d="m80.219 240.315c-.186-2.246-2.261-3.848-4.481-3.459l-9.833 1.721 3.679 44.31c.626 7.539-4.601 14.311-12.053 15.616l2.423 13.842c.365 2.086 2.352 3.48 4.437 3.115l18.301-3.204c1.953-.342 3.324-2.117 3.16-4.094z" fill="#de646e"/><path d="m427.136 229.907 18.302-3.204c2.085-.365 4.072 1.03 4.437 3.115l11.691 66.788c.365 2.085-1.03 4.072-3.115 4.437l-24.36 4.264c-2.22.389-4.295-1.213-4.481-3.459l-5.633-67.848c-.164-1.976 1.206-3.751 3.159-4.093z" fill="#e17f85"/><path d="m461.566 296.606-11.691-66.788c-.365-2.085-2.352-3.48-4.437-3.115l-8.593 1.504 6.725 38.419c1.77 10.108-4.991 19.737-15.099 21.507l1.139 13.715c.186 2.246 2.261 3.847 4.481 3.459l24.36-4.264c2.085-.365 3.48-2.351 3.115-4.437z" fill="#de646e"/><g><g><path d="m355.628 301.795c.77 10.066-14.294 18.512-16.884 27.801-2.646 9.49 5.865 24.408.252 32.502-5.542 7.993-22.638 5.433-30.543 11.492-7.665 5.875-9.441 23.054-18.841 26.583-8.966 3.366-21.675-8.257-31.792-7.485-10.117.771-20.91 14.186-30.284 12.218-9.828-2.063-14.198-18.774-22.669-23.419-8.735-4.79-25.244.332-31.938-6.728-6.779-7.149-.637-23.184-4.696-32.163-3.973-8.789-20.148-14.852-20.919-24.919-.77-10.066 14.294-18.512 16.884-27.801 2.646-9.49-5.865-24.408-.252-32.502 5.542-7.993 22.638-5.433 30.544-11.492 7.665-5.875 9.441-23.054 18.841-26.583 8.966-3.366 21.675 8.257 31.792 7.485 10.117-.771 20.91-14.186 30.284-12.218 9.828 2.063 14.198 18.774 22.669 23.419 8.735 4.79 25.244-.332 31.938 6.728 6.779 7.149.637 23.184 4.696 32.163 3.972 8.789 20.147 14.853 20.918 24.919z" fill="#b3e59f"/></g><g><path d="m214.217 226.784c4.191-.319 8.498-2.809 12.773-5.476-4.923-2.031-9.663-3.51-13.659-2.009-2.842 1.067-4.985 3.385-6.806 6.259 2.655.873 5.249 1.412 7.692 1.226z" fill="#aad541"/><path d="m338.743 329.596c2.59-9.289 17.655-17.734 16.884-27.8-.77-10.066-16.945-16.13-20.919-24.918-4.059-8.979 2.083-25.014-4.696-32.163-6.694-7.06-23.202-1.938-31.938-6.728-8.471-4.644-12.84-21.356-22.669-23.419-6.411-1.346-13.486 4.503-20.555 8.582 3.958 5.558 7.466 12.177 12.318 14.837 8.736 4.79 25.244-.331 31.938 6.728 6.779 7.149.637 23.185 4.696 32.163 3.973 8.788 20.148 14.852 20.919 24.918s-14.294 18.512-16.884 27.8c-2.646 9.49 5.865 24.408.252 32.503-5.542 7.992-22.638 5.433-30.544 11.491-5.348 4.099-7.831 13.696-12.035 20.325 8.344 2.744 17.298 8.812 24.099 6.259 9.4-3.529 11.176-20.709 18.841-26.583 7.905-6.058 25.002-3.499 30.544-11.491 5.614-8.096-2.896-23.014-.251-32.504z" fill="#95d6a4"/></g><g><path d="m389.578 316.016c-9.804 1.886-19.639 3.563-29.497 5.031-1.468-9.861-2.936-19.722-4.403-29.583 9.438-1.405 18.855-3.011 28.242-4.816 7.901-1.52 15.563 3.563 17.251 11.429.021.098.042.195.063.293 1.741 8.107-3.514 16.08-11.656 17.646z" fill="#f7f6f7"/><path d="m151.919 321.047c-9.858-1.468-19.692-3.144-29.497-5.031-8.143-1.567-13.397-9.539-11.657-17.647.021-.097.042-.195.063-.292 1.688-7.866 9.351-12.949 17.251-11.429 9.388 1.806 18.804 3.411 28.242 4.816-1.467 9.861-2.934 19.722-4.402 29.583z" fill="#f7f6f7"/><path d="m349.123 339.913c-61.822 8.017-124.423 8.017-186.245 0-7.414-.961-12.604-7.809-11.503-15.203 1.844-12.39 3.688-24.781 5.532-37.171 1.067-7.169 7.666-12.196 14.855-11.271 55.927 7.198 112.55 7.198 168.478 0 7.189-.925 13.788 4.102 14.855 11.271 1.844 12.39 3.688 24.781 5.532 37.171 1.1 7.394-4.091 14.242-11.504 15.203z" fill="#e17f85"/><path d="m360.626 324.71c-1.844-12.39-3.688-24.781-5.532-37.171-1.072-7.201-7.714-12.189-14.935-11.261-5.023.646-10.054 1.213-15.087 1.743.022.149.044.297.066.446 3.745 25.166-13.949 47.321-39.303 49.453-44.795 3.765-89.853 3.343-134.591-1.243-.006 6.604 4.884 12.362 11.634 13.237 61.846 8.02 124.473 8.017 186.319-.01 7.386-.959 12.526-7.827 11.429-15.194z" fill="#de646e"/></g><g><path d="m389.578 260.975c-9.804 1.886-19.639 3.563-29.497 5.031-1.468-9.861-2.936-19.722-4.403-29.583 9.438-1.405 18.855-3.011 28.242-4.816 7.901-1.52 15.563 3.563 17.251 11.429.021.098.042.195.063.293 1.741 8.106-3.514 16.079-11.656 17.646z" fill="#f7f6f7"/><path d="m151.919 266.005c-9.858-1.468-19.692-3.144-29.497-5.031-8.143-1.567-13.397-9.539-11.657-17.647.021-.097.042-.195.063-.292 1.688-7.866 9.351-12.949 17.251-11.429 9.388 1.806 18.804 3.411 28.242 4.816-1.467 9.862-2.934 19.722-4.402 29.583z" fill="#f7f6f7"/><path d="m349.123 284.871c-61.822 8.017-124.423 8.017-186.245 0-7.414-.961-12.604-7.809-11.503-15.203 1.844-12.39 3.688-24.781 5.532-37.171 1.067-7.169 7.666-12.196 14.855-11.271 55.927 7.198 112.55 7.198 168.478 0 7.189-.925 13.788 4.102 14.855 11.271 1.844 12.39 3.688 24.781 5.532 37.171 1.1 7.394-4.091 14.242-11.504 15.203z" fill="#e17f85"/><path d="m360.626 269.668c-1.844-12.39-3.688-24.781-5.532-37.171-1.072-7.201-7.716-12.189-14.937-11.261-5.023.646-10.053 1.213-15.085 1.742.022.149.044.297.066.446 3.745 25.166-13.949 47.321-39.303 49.453-44.795 3.765-89.853 3.344-134.591-1.243-.006 6.604 4.884 12.362 11.634 13.237 61.846 8.02 124.473 8.017 186.319-.01 7.386-.958 12.526-7.826 11.429-15.193z" fill="#de646e"/></g><g><path d="m389.578 205.933c-9.804 1.886-19.639 3.563-29.497 5.031-1.468-9.861-2.936-19.722-4.403-29.583 9.438-1.405 18.855-3.011 28.242-4.816 7.901-1.52 15.563 3.563 17.251 11.429.021.098.042.195.063.293 1.741 8.107-3.514 16.079-11.656 17.646z" fill="#f7f6f7"/><path d="m151.919 210.964c-9.858-1.468-19.692-3.144-29.497-5.031-8.143-1.567-13.397-9.539-11.657-17.647.021-.097.042-.195.063-.292 1.688-7.866 9.351-12.949 17.251-11.429 9.388 1.806 18.804 3.411 28.242 4.816-1.467 9.861-2.934 19.722-4.402 29.583z" fill="#f7f6f7"/><path d="m349.123 229.829c-61.822 8.017-124.423 8.017-186.245 0-7.414-.961-12.604-7.809-11.503-15.203 1.844-12.39 3.688-24.781 5.532-37.171 1.067-7.169 7.666-12.196 14.855-11.271 55.927 7.198 112.55 7.198 168.478 0 7.189-.925 13.788 4.102 14.855 11.271 1.844 12.39 3.688 24.781 5.532 37.171 1.1 7.395-4.091 14.242-11.504 15.203z" fill="#e17f85"/><path d="m360.626 214.626c-1.844-12.39-3.688-24.781-5.532-37.171-1.072-7.201-7.714-12.189-14.935-11.261-5.023.646-10.054 1.213-15.087 1.743.022.149.044.297.066.446 3.745 25.166-13.949 47.321-39.303 49.453-44.795 3.765-89.853 3.343-134.591-1.243-.006 6.604 4.884 12.362 11.634 13.237 61.846 8.02 124.473 8.017 186.319-.01 7.386-.959 12.526-7.826 11.429-15.194z" fill="#de646e"/></g></g><path d="m214.504 115.876c-7.644 7.644-20.037 7.644-27.681 0l-24.767-24.767c-7.644-7.644-7.644-20.037 0-27.681 7.644-7.644 20.037-7.644 27.681 0l24.767 24.767c7.644 7.643 7.644 20.037 0 27.681z" fill="#c6855b"/><path d="m214.504 88.195-24.767-24.768c-7.644-7.644-20.037-7.644-27.681 0-.546.546-1.042 1.123-1.511 1.714l23.053 23.054c7.098 7.098 7.594 18.284 1.511 25.967l1.714 1.713c7.644 7.644 20.037 7.644 27.681 0s7.644-20.036 0-27.68z" fill="#c17e4e"/><path d="m454.047 149.512c4.951 9.61 1.174 21.414-8.436 26.364l-31.137 16.041c-9.61 4.951-21.413 1.174-26.364-8.436-4.951-9.61-1.174-21.413 8.436-26.364l31.137-16.041c9.61-4.95 21.413-1.173 26.364 8.436z" fill="#c6855b"/><path d="m454.047 149.513c-4.951-9.61-16.754-13.387-26.364-8.437l-7.714 3.974c1.23 1.304 2.311 2.789 3.173 4.462 4.95 9.61 1.173 21.413-8.436 26.364l-23.423 12.066c5.833 6.186 15.255 8.062 23.191 3.974l31.137-16.041c9.609-4.949 13.386-16.753 8.436-26.362z" fill="#c17e4e"/><path d="m318.306 460.119-21.03 13.453c-2.396 1.533-5.582.833-7.115-1.564l-49.092-76.746c-1.533-2.396-.833-5.582 1.564-7.115l27.992-17.905c2.551-1.632 5.953-.721 7.348 1.967l42.131 81.199c1.226 2.365.446 5.275-1.798 6.711z" fill="#e17f85"/><path d="m320.102 453.407-42.131-81.199c-1.395-2.688-4.797-3.599-7.348-1.967l-12.434 7.953 31.007 59.76c1.227 2.365.448 5.276-1.797 6.711l-10.452 6.686 13.213 20.656c1.533 2.396 4.718 3.096 7.115 1.563l21.03-13.453c2.245-1.434 3.024-4.344 1.797-6.71z" fill="#de646e"/></g></svg>