<svg id="Capa_1" enable-background="new 0 0 512 512" height="512" viewBox="0 0 512 512" width="512" xmlns="http://www.w3.org/2000/svg"><g><path d="m234.082 46.453c-103.341 0-187.128 83.598-187.128 186.721 0 103.113 83.787 186.71 187.128 186.71v-186.71h187.128c0-103.124-83.776-186.721-187.128-186.721z" fill="#f2d59c"/><g><path d="m234.082 46.453c-5.196 0-10.339.221-15.428.636 96.132 7.83 171.698 88.147 171.698 186.085h30.858c0-103.124-83.776-186.721-187.128-186.721z" fill="#ecc372"/></g><path d="m456.558 233.174h-35.348c0-103.123-83.776-186.721-187.128-186.721-103.341 0-187.128 83.597-187.128 186.721 0 103.113 83.787 186.71 187.128 186.71v35.222c0 6.236-5.187 11.256-11.403 10.958-123.76-5.934-222.285-107.938-222.285-232.89 0-128.779 104.632-233.174 233.688-233.174 125.226 0 227.44 98.275 233.412 221.745.302 6.23-4.711 11.429-10.936 11.429z" fill="#c6855b"/><path d="m456.558 233.174h-35.348c0-103.123-83.776-186.721-187.128-186.721-103.341 0-187.128 83.597-187.128 186.721 0 103.113 83.787 186.71 187.128 186.71v35.222c0 6.236-5.187 11.256-11.403 10.958-123.76-5.934-222.285-107.938-222.285-232.89 0-128.779 104.632-233.174 233.688-233.174 125.226 0 227.44 98.275 233.412 221.745.302 6.23-4.711 11.429-10.936 11.429z" fill="#c6855b"/><path d="m456.558 233.174h-35.348c0-103.123-83.776-186.721-187.128-186.721-103.341 0-187.128 83.597-187.128 186.721 0 103.113 83.787 186.71 187.128 186.71v35.222c0 6.236-5.187 11.256-11.403 10.958-123.76-5.934-222.285-107.938-222.285-232.89 0-128.779 104.632-233.174 233.688-233.174 125.226 0 227.44 98.275 233.412 221.745.302 6.23-4.711 11.429-10.936 11.429z" fill="#c6855b"/><g><path d="m234.082 0c-5.179 0-10.314.186-15.41.518 118.084 7.691 212.24 102.877 217.964 221.227.301 6.23-4.711 11.429-10.937 11.429h30.858c6.225 0 11.238-5.199 10.937-11.429-5.972-123.47-108.185-221.745-233.412-221.745z" fill="#c17e4e"/></g><path d="m241.797 46.623c-2.56-.103-5.129-.17-7.714-.17s-5.155.067-7.715.17v186.551h7.715 7.714z" fill="#ecc372"/><path d="m241.797.14c-2.563-.083-5.132-.14-7.715-.14s-5.152.057-7.715.14v46.483c2.56-.104 5.129-.171 7.715-.171 2.585 0 5.155.067 7.714.17v-46.482z" fill="#c17e4e"/><g fill="#e17f85"><ellipse cx="355.301" cy="184.912" rx="17.508" ry="17.542"/><ellipse cx="180.924" cy="182.632" rx="17.508" ry="17.542"/><ellipse cx="172.378" cy="282.514" rx="17.508" ry="17.542"/><ellipse cx="188.226" cy="355.242" rx="17.508" ry="17.542"/><path d="m85.197 121.782c-.445 0-.887.015-1.328.033-10.328 13.848-18.77 29.176-24.966 45.603 5.251 9.092 15.056 15.214 26.295 15.214 16.771 0 30.366-13.622 30.366-30.425-.001-16.803-13.596-30.425-30.367-30.425z"/></g><path d="m85.197 121.782c-.445 0-.887.015-1.328.034-1.746 2.341-3.417 4.739-5.053 7.163 6.581 5.581 10.764 13.913 10.764 23.228 0 12.138-7.096 22.613-17.358 27.496 3.936 1.87 8.329 2.93 12.975 2.93 16.771 0 30.366-13.622 30.366-30.425 0-16.804-13.595-30.426-30.366-30.426z" fill="#de646e"/><ellipse cx="180.924" cy="107.473" fill="#e17f85" rx="17.508" ry="17.542"/><ellipse cx="281.059" cy="182.632" fill="#e17f85" rx="17.508" ry="17.542"/><path d="m317.936 111.754c15.529 0 28.144-12.466 28.44-27.954-13.36-10.016-28.106-18.29-43.903-24.482-7.816 5.081-12.991 13.896-12.991 23.927 0 15.745 12.739 28.509 28.454 28.509z" fill="#e17f85"/><path d="m337.903 103.55c5.111-5.05 8.325-12.023 8.473-19.749-.001-.001-.002-.002-.003-.002-6.865-5.141-14.071-9.806-21.575-13.962-7.202-3.989-14.657-7.507-22.325-10.517-3.888 2.528-7.121 5.981-9.391 10.046 16.642 9.106 31.745 20.662 44.821 34.184z" fill="#de646e"/><path d="m87.233 291.885c-10.474 0-19.914 4.408-26.595 11.465 9.127 22.432 22.495 42.691 39.116 59.79 14.079-5.127 24.136-18.65 24.136-34.528 0-20.283-16.412-36.727-36.657-36.727z" fill="#e17f85"/><path d="m87.233 291.885c-5.347 0-10.421 1.154-14.999 3.218 12.763 5.745 21.657 18.583 21.657 33.51 0 7.659-2.345 14.766-6.348 20.651 3.844 4.824 7.917 9.458 12.212 13.876 14.079-5.127 24.136-18.649 24.136-34.527-.001-20.284-16.413-36.728-36.658-36.728z" fill="#de646e"/><g><path d="m511.602 286.827c-4.073 122.533-102.893 221.123-225.704 225.169-4.304.142-7.853-3.359-7.853-7.674v-38.565l15.429-160.408c0-6.055 4.899-10.964 10.943-10.964l160.845-15.429h38.682c4.306.001 7.801 3.558 7.658 7.871z" fill="#c6855b"/><path d="m503.943 278.957h-30.858c4.307 0 7.802 3.557 7.658 7.87-3.789 114.002-89.597 207.262-200.43 222.957 1.429 1.424 3.409 2.284 5.584 2.213 122.811-4.046 221.631-102.636 225.704-225.169.144-4.314-3.351-7.871-7.658-7.871z" fill="#c17e4e"/><path d="m465.262 278.957c0 103.17-83.817 186.801-187.217 186.801v-175.838c0-6.055 4.899-10.964 10.943-10.964h176.274z" fill="#f2d59c"/><path d="m444.493 278.957c-8.064 88.567-78.069 159.271-166.448 168.626v18.174c103.4 0 187.217-83.631 187.217-186.801h-20.769z" fill="#ecc372"/><g fill="#e17f85"><ellipse cx="405.823" cy="333.237" rx="17.508" ry="17.542"/><ellipse cx="330.201" cy="330.375" rx="17.508" ry="17.542"/><path d="m354.519 395.541c-18.844 0-34.12 15.305-34.12 34.185 0 11.259 5.434 21.244 13.816 27.472 19.755-6.191 38.093-15.567 54.422-27.515-.023-18.86-15.289-34.142-34.118-34.142z"/></g><path d="m354.519 395.541c-5.383 0-10.473 1.253-15 3.478.113.056.226.112.338.169 16.924 8.55 17.35 32.709.875 42.094-4.728 2.694-9.586 5.188-14.56 7.471 2.181 3.255 4.906 6.114 8.044 8.446 19.755-6.191 38.093-15.567 54.422-27.515-.024-18.861-15.29-34.143-34.119-34.143z" fill="#de646e"/></g><path d="m47.126 225.459c-.104 2.56-.171 5.129-.171 7.714s.067 5.155.172 7.714h186.956v-7.714-7.714z" fill="#ecc372"/><path d="m.535 240.888h46.591c-.104-2.56-.172-5.129-.172-7.714s.067-5.155.172-7.714h-46.591c-.084 2.562-.141 5.132-.141 7.714 0 2.583.057 5.152.141 7.714z" fill="#c17e4e"/></g></svg>